<svg width="81" height="112" viewBox="0 0 81 112" fill="none" xmlns="http://www.w3.org/2000/svg">
<path d="M71.9064 67.6162C71.2581 67.0003 70.4707 66.6043 69.634 66.4731C68.7974 66.342 67.9452 66.4812 67.1747 66.8746L52.8382 74.1286L44.5083 57.0415C44.1101 56.2437 43.5333 55.5803 42.8365 55.1187C42.1397 54.6572 41.3479 54.4141 40.5416 54.4141C39.7354 54.4141 38.9435 54.6572 38.2468 55.1187C37.55 55.5803 36.9731 56.2437 36.575 57.0415L28.2451 74.1286L13.9085 66.8746C13.1365 66.4817 12.2832 66.3424 11.4452 66.4725C10.6072 66.6025 9.81787 66.9967 9.16646 67.6105C8.51504 68.2243 8.02751 69.0332 7.75898 69.9457C7.49045 70.8583 7.45163 71.8382 7.6469 72.7746L14.8435 107.69C14.9811 108.366 15.2379 109.004 15.5983 109.563C15.9587 110.123 16.4152 110.594 16.9402 110.947C17.6509 111.431 18.4635 111.687 19.2918 111.688C19.6945 111.687 20.095 111.622 20.4818 111.495C33.5995 107.368 47.4554 107.368 60.5731 111.495C61.7709 111.853 63.0446 111.656 64.1148 110.947C64.6429 110.598 65.1019 110.129 65.4628 109.568C65.8237 109.008 66.0786 108.369 66.2114 107.69L73.4364 72.7746C73.6294 71.8379 73.5885 70.8585 73.3181 69.947C73.0478 69.0354 72.5588 68.2281 71.9064 67.6162V67.6162Z" fill="#5CFEF0"/>
<circle cx="40.5386" cy="9.43311" r="9.43311" fill="#5CFEF0"/>
<circle cx="40.5387" cy="42.4498" r="7.07483" fill="#5CFEF0"/>
<circle cx="74.7326" cy="24.7629" r="5.89569" fill="#5CFEF0"/>
<circle cx="6.34296" cy="24.7629" r="5.89569" fill="#5CFEF0"/>
<circle cx="22.8509" cy="45.9866" r="3.53742" fill="#5CFEF0"/>
<circle cx="58.2249" cy="45.9866" r="3.53742" fill="#5CFEF0"/>
</svg>
