<svg width="177" height="31" viewBox="0 0 177 31" fill="none" xmlns="http://www.w3.org/2000/svg">
<path fill-rule="evenodd" clip-rule="evenodd" d="M21.5676 0.0832676C21.0492 -0.0814613 20.3849 -0.015331 19.9271 0.403951C19.4673 0.00291434 18.8259 -0.0852298 18.298 0.0833729C17.0939 0.467193 16.7229 1.8427 17.0588 2.88096C17.329 3.71383 17.9119 4.32917 18.4757 4.73295C18.7587 4.93564 19.0423 5.08904 19.2897 5.1927C19.5277 5.29243 19.7603 5.35808 19.9344 5.35808C20.1095 5.35808 20.3437 5.29077 20.5823 5.18988C20.8306 5.08485 21.1154 4.92987 21.3991 4.72619C21.9636 4.32089 22.5471 3.70543 22.8095 2.87997C23.1448 1.84131 22.7709 0.466842 21.5676 0.0832676ZM21.0297 1.13461C20.873 1.11867 20.7329 1.23154 20.7168 1.38672C20.7007 1.5419 20.8147 1.68061 20.9714 1.69656C21.0717 1.70676 21.1396 1.74806 21.1842 1.80392C21.2306 1.86209 21.2669 1.95563 21.2623 2.09021C21.257 2.24611 21.3804 2.37674 21.5378 2.38197C21.6953 2.3872 21.8272 2.26506 21.8325 2.10915C21.8408 1.86496 21.7758 1.63397 21.6317 1.45353C21.4857 1.2708 21.2738 1.15944 21.0297 1.13461Z" fill="url(#paint0_linear_276_3554)"/>
<path d="M22.9683 13.9467C22.9647 15.3161 22.9608 16.7807 22.6882 18.2892L21.698 21.364C21.5824 21.6011 21.4562 21.8385 21.3184 22.076C15.354 31.3549 4.4352 23.2059 5.58772 18.6774C5.90641 17.8108 6.55698 17.3523 7.26593 17.2076L7.26995 17.2328C8.24596 17.0702 9.02789 17.5832 9.66995 18.2835C9.98866 18.6312 10.2588 19.0104 10.4884 19.3469C10.5293 19.4069 10.5697 19.4667 10.6091 19.525C10.6774 19.626 10.7426 19.7226 10.8013 19.8065C10.8928 19.9373 10.9868 20.0647 11.0773 20.1575L11.1978 20.0345C11.4856 20.313 11.812 20.5673 12.1958 20.7731C12.5715 20.9922 12.9694 21.1417 13.3674 21.2318C14.3084 21.5162 15.1007 21.4352 15.7541 21.1426C17.5305 20.5451 18.6932 17.805 18.4407 14.7856C18.4119 13.1704 17.993 11.7403 17.3067 10.5244C17.3094 10.5247 17.3121 10.525 17.3147 10.5254C17.2831 10.4742 17.2513 10.4235 17.2193 10.3733C16.7848 9.63844 16.2515 8.98464 15.6478 8.41856C13.1121 5.92753 10.0877 5.58139 8.47652 5.85536C-1.05467 6.74188 -2.75858 21.1059 4.97224 27.8667C10.5931 32.7823 22.5457 32.5058 26.6568 22.7579C28.1015 19.9253 28.0094 16.8934 27.863 12.076L27.863 12.0743C27.8465 11.5314 27.8293 10.9657 27.8135 10.3752V6.18617C26.8229 6.17058 24.9924 6.62082 23.8528 8.28022C23.7291 8.4434 23.6154 8.61793 23.5142 8.80437C23.1186 9.33164 22.7329 10.4435 22.9762 12.876C22.9702 13.2255 22.9693 13.5827 22.9683 13.9467Z" fill="url(#paint1_linear_276_3554)"/>
<path d="M49.627 26.8465H45.5669L40.5493 19.6763L39.6812 20.7342V26.8465H36.5659V8.56184H39.6812V15.7843L45.5925 8.56184H49.6653L42.5794 17.1817L49.627 26.8465Z" fill="#5CFEF0"/>
<path d="M60.0323 13.786H63.1475V26.8465H60.0323L59.8918 25.227C59.5428 25.8103 59.079 26.2849 58.5002 26.6506C57.9299 27.0075 57.2532 27.186 56.4701 27.186C55.5254 27.186 54.6401 27.0032 53.8145 26.6375C52.9889 26.2718 52.2611 25.7668 51.6313 25.1225C51.0099 24.4782 50.5205 23.7337 50.163 22.8891C49.8141 22.0446 49.6396 21.139 49.6396 20.1726C49.6396 19.2409 49.8055 18.3659 50.1375 17.5474C50.478 16.729 50.9504 16.0106 51.5547 15.3925C52.159 14.7743 52.857 14.291 53.6485 13.9427C54.4401 13.5945 55.2913 13.4203 56.202 13.4203C57.0447 13.4203 57.798 13.6119 58.4619 13.995C59.1343 14.3781 59.7046 14.8657 60.1727 15.4578L60.0323 13.786ZM56.3935 24.1168C57.0574 24.1168 57.6447 23.947 58.1554 23.6075C58.6661 23.2679 59.0662 22.8108 59.3556 22.2361C59.645 21.6528 59.7897 21.0128 59.7897 20.3162C59.7897 19.611 59.645 18.971 59.3556 18.3964C59.0662 17.813 58.6619 17.3515 58.1427 17.0119C57.632 16.6724 57.0489 16.5026 56.3935 16.5026C55.7381 16.5026 55.1381 16.6767 54.5933 17.025C54.0571 17.3646 53.6273 17.8217 53.3038 18.3964C52.9889 18.971 52.8314 19.611 52.8314 20.3162C52.8314 21.0215 52.9931 21.6615 53.3166 22.2361C53.64 22.8108 54.0699 23.2679 54.6061 23.6075C55.1508 23.947 55.7467 24.1168 56.3935 24.1168Z" fill="#5CFEF0"/>
<path d="M71.7061 26.8465H68.6164L64.352 13.786H67.4035L70.174 22.2361L72.9318 13.786H76.0087L78.7665 22.2361L81.537 13.786H84.5884L80.3241 26.8465H77.2344L74.4639 18.3572L71.7061 26.8465Z" fill="#5CFEF0"/>
<path d="M95.6165 13.786H98.7318V26.8465H95.6165L95.4761 25.227C95.1271 25.8103 94.6632 26.2849 94.0844 26.6506C93.5141 27.0075 92.8375 27.186 92.0544 27.186C91.1096 27.186 90.2244 27.0032 89.3988 26.6375C88.5731 26.2718 87.8454 25.7668 87.2155 25.1225C86.5942 24.4782 86.1048 23.7337 85.7473 22.8891C85.3983 22.0446 85.2238 21.139 85.2238 20.1726C85.2238 19.2409 85.3898 18.3659 85.7217 17.5474C86.0622 16.729 86.5346 16.0106 87.1389 15.3925C87.7432 14.7743 88.4412 14.291 89.2328 13.9427C90.0244 13.5945 90.8755 13.4203 91.7863 13.4203C92.6289 13.4203 93.3822 13.6119 94.0461 13.995C94.7185 14.3781 95.2888 14.8657 95.757 15.4578L95.6165 13.786ZM91.9778 24.1168C92.6417 24.1168 93.229 23.947 93.7397 23.6075C94.2504 23.2679 94.6504 22.8108 94.9398 22.2361C95.2292 21.6528 95.3739 21.0128 95.3739 20.3162C95.3739 19.611 95.2292 18.971 94.9398 18.3964C94.6504 17.813 94.2461 17.3515 93.7269 17.0119C93.2162 16.6724 92.6332 16.5026 91.9778 16.5026C91.3224 16.5026 90.7223 16.6767 90.1776 17.025C89.6413 17.3646 89.2115 17.8217 88.8881 18.3964C88.5731 18.971 88.4157 19.611 88.4157 20.3162C88.4157 21.0215 88.5774 21.6615 88.9008 22.2361C89.2243 22.8108 89.6541 23.2679 90.1903 23.6075C90.7351 23.947 91.3309 24.1168 91.9778 24.1168Z" fill="#5CFEF0"/>
<path d="M101.276 13.786H104.391V26.8465H101.276V13.786ZM102.859 12.1012C102.399 12.1012 102.012 11.9489 101.697 11.6441C101.382 11.3307 101.225 10.9388 101.225 10.4687C101.225 10.0072 101.382 9.61974 101.697 9.30629C102.012 8.99284 102.395 8.83611 102.846 8.83611C103.297 8.83611 103.676 8.99284 103.983 9.30629C104.298 9.61974 104.455 10.0072 104.455 10.4687C104.455 10.9388 104.302 11.3307 103.995 11.6441C103.689 11.9489 103.31 12.1012 102.859 12.1012Z" fill="#5CFEF0"/>
<path d="M107.46 13.786H110.575V26.8465H107.46V13.786ZM109.043 12.1012C108.584 12.1012 108.196 11.9489 107.881 11.6441C107.566 11.3307 107.409 10.9388 107.409 10.4687C107.409 10.0072 107.566 9.61974 107.881 9.30629C108.196 8.99284 108.579 8.83611 109.03 8.83611C109.482 8.83611 109.86 8.99284 110.167 9.30629C110.482 9.61974 110.639 10.0072 110.639 10.4687C110.639 10.9388 110.486 11.3307 110.18 11.6441C109.873 11.9489 109.494 12.1012 109.043 12.1012Z" fill="#5CFEF0"/>
<path d="M118.959 26.8465L112.473 8.56184H115.78L120.951 23.1242L126.134 8.56184H129.428L122.942 26.8465H118.959Z" fill="#DBE6FF"/>
<path d="M135.421 27.186C134.246 27.186 133.174 26.8769 132.203 26.2587C131.242 25.6405 130.471 24.809 129.892 23.7642C129.322 22.7194 129.037 21.5657 129.037 20.3032C129.037 19.3541 129.203 18.466 129.535 17.6389C129.867 16.803 130.322 16.0716 130.901 15.4447C131.488 14.8091 132.169 14.3128 132.944 13.9558C133.718 13.5988 134.544 13.4203 135.421 13.4203C136.417 13.4203 137.327 13.638 138.153 14.0734C138.987 14.5 139.694 15.0877 140.272 15.8365C140.851 16.5853 141.273 17.4386 141.536 18.3964C141.8 19.3541 141.86 20.3554 141.715 21.4003H132.382C132.501 21.8878 132.697 22.3275 132.969 22.7194C133.242 23.1025 133.587 23.4116 134.004 23.6467C134.421 23.873 134.893 23.9906 135.421 23.9993C135.966 24.008 136.459 23.8774 136.902 23.6075C137.353 23.3288 137.727 22.9545 138.025 22.4843L141.204 23.2418C140.685 24.3998 139.911 25.3489 138.881 26.089C137.851 26.8203 136.698 27.186 135.421 27.186ZM132.28 19.0102H138.562C138.468 18.4878 138.268 18.0176 137.962 17.5997C137.664 17.173 137.293 16.8335 136.851 16.581C136.408 16.3285 135.931 16.2022 135.421 16.2022C134.91 16.2022 134.438 16.3285 134.004 16.581C133.57 16.8248 133.199 17.16 132.893 17.5866C132.595 18.0045 132.391 18.4791 132.28 19.0102Z" fill="#DBE6FF"/>
<path d="M143.805 26.8465L143.792 13.786H146.908L146.92 14.9484C147.355 14.4782 147.874 14.1082 148.478 13.8383C149.082 13.5596 149.734 13.4203 150.432 13.4203C150.9 13.4203 151.368 13.49 151.836 13.6293L150.61 16.8422C150.287 16.7116 149.963 16.6463 149.64 16.6463C149.138 16.6463 148.678 16.7725 148.261 17.025C147.852 17.2688 147.525 17.604 147.278 18.0307C147.04 18.4486 146.92 18.9144 146.92 19.4281V26.8465H143.805Z" fill="#DBE6FF"/>
<path d="M156.985 27.0816C156.321 27.038 155.678 26.9031 155.057 26.6767C154.444 26.4416 153.899 26.1238 153.423 25.7233C152.946 25.3227 152.58 24.8439 152.325 24.2866L154.955 23.1373C155.057 23.3114 155.223 23.4986 155.453 23.6989C155.683 23.8904 155.955 24.0515 156.27 24.1821C156.593 24.3127 156.946 24.378 157.33 24.378C157.653 24.378 157.959 24.3345 158.249 24.2474C158.547 24.1517 158.785 24.008 158.964 23.8164C159.151 23.6249 159.245 23.3767 159.245 23.072C159.245 22.7498 159.134 22.5017 158.913 22.3275C158.7 22.1447 158.428 22.0097 158.096 21.9227C157.772 21.8269 157.457 21.7398 157.151 21.6615C156.342 21.496 155.589 21.2392 154.891 20.8909C154.201 20.5426 153.644 20.0942 153.218 19.5457C152.801 18.9884 152.593 18.318 152.593 17.5344C152.593 16.6724 152.814 15.9279 153.257 15.301C153.708 14.6741 154.291 14.1909 155.006 13.8513C155.729 13.5118 156.508 13.342 157.342 13.342C158.355 13.342 159.283 13.5596 160.126 13.995C160.977 14.4216 161.649 15.0268 162.143 15.8104L159.679 17.2993C159.56 17.0903 159.394 16.8988 159.181 16.7246C158.968 16.5418 158.725 16.3938 158.453 16.2806C158.181 16.1587 157.896 16.089 157.598 16.0716C157.215 16.0542 156.866 16.089 156.551 16.1761C156.236 16.2632 155.98 16.4112 155.785 16.6201C155.597 16.8291 155.504 17.1077 155.504 17.456C155.504 17.7869 155.631 18.035 155.887 18.2004C156.142 18.3572 156.449 18.4791 156.806 18.5661C157.172 18.6532 157.521 18.749 157.853 18.8535C158.602 19.106 159.304 19.4151 159.96 19.7808C160.624 20.1465 161.156 20.5949 161.556 21.126C161.956 21.6571 162.147 22.2927 162.13 23.0328C162.13 23.8774 161.883 24.6175 161.39 25.2531C160.896 25.88 160.258 26.3589 159.474 26.6897C158.7 27.0206 157.87 27.1512 156.985 27.0816Z" fill="#DBE6FF"/>
<path d="M169.733 27.186C168.559 27.186 167.486 26.8769 166.516 26.2587C165.554 25.6405 164.784 24.809 164.205 23.7642C163.635 22.7194 163.35 21.5657 163.35 20.3032C163.35 19.3541 163.516 18.466 163.847 17.6389C164.179 16.803 164.635 16.0716 165.214 15.4447C165.801 14.8091 166.482 14.3128 167.256 13.9558C168.031 13.5988 168.857 13.4203 169.733 13.4203C170.729 13.4203 171.64 13.638 172.466 14.0734C173.3 14.5 174.006 15.0877 174.585 15.8365C175.164 16.5853 175.585 17.4386 175.849 18.3964C176.113 19.3541 176.172 20.3554 176.028 21.4003H166.695C166.814 21.8878 167.01 22.3275 167.282 22.7194C167.554 23.1025 167.899 23.4116 168.316 23.6467C168.733 23.873 169.206 23.9906 169.733 23.9993C170.278 24.008 170.772 23.8774 171.214 23.6075C171.665 23.3288 172.04 22.9545 172.338 22.4843L175.517 23.2418C174.998 24.3998 174.223 25.3489 173.193 26.089C172.163 26.8203 171.01 27.186 169.733 27.186ZM166.592 19.0102H172.874C172.78 18.4878 172.58 18.0176 172.274 17.5997C171.976 17.173 171.606 16.8335 171.163 16.581C170.721 16.3285 170.244 16.2022 169.733 16.2022C169.223 16.2022 168.75 16.3285 168.316 16.581C167.882 16.8248 167.512 17.16 167.205 17.5866C166.907 18.0045 166.703 18.4791 166.592 19.0102Z" fill="#DBE6FF"/>
<defs>
<linearGradient id="paint0_linear_276_3554" x1="35.0338" y1="17.4139" x2="176.894" y2="17.4139" gradientUnits="userSpaceOnUse">
<stop stop-color="#70DBE3"/>
<stop offset="1" stop-color="#1639F4"/>
</linearGradient>
<linearGradient id="paint1_linear_276_3554" x1="35.0338" y1="17.4139" x2="176.894" y2="17.4139" gradientUnits="userSpaceOnUse">
<stop stop-color="#70DBE3"/>
<stop offset="1" stop-color="#1639F4"/>
</linearGradient>
</defs>
</svg>
